<?xml version="1.0" encoding="UTF-8" standalone="no"?>
<svg
   xmlns:dc="http://purl.org/dc/elements/1.1/"
   xmlns:cc="http://creativecommons.org/ns#"
   xmlns:rdf="http://www.w3.org/1999/02/22-rdf-syntax-ns#"
   xmlns:svg="http://www.w3.org/2000/svg"
   xmlns="http://www.w3.org/2000/svg"
   xmlns:xlink="http://www.w3.org/1999/xlink"
   xmlns:sodipodi="http://sodipodi.sourceforge.net/DTD/sodipodi-0.dtd"
   xmlns:inkscape="http://www.inkscape.org/namespaces/inkscape"
   viewBox="0 0 953 272"
   version="1.1"
   id="svg34"
   sodipodi:docname="chargily_java.svg"
   inkscape:version="1.0.1 (3bc2e813f5, 2020-09-07)">
  <metadata
     id="metadata40">
    <rdf:RDF>
      <cc:Work
         rdf:about="">
        <dc:format>image/svg+xml</dc:format>
        <dc:type
           rdf:resource="http://purl.org/dc/dcmitype/StillImage" />
        <dc:title />
      </cc:Work>
    </rdf:RDF>
  </metadata>
  <defs
     id="defs38">
    <linearGradient
       id="b"
       x1="-23.82"
       y1="136.073"
       x2="107.837"
       y2="4.415"
       gradientUnits="userSpaceOnUse">
      <stop
         offset=".108"
         stop-color="#c757bc"
         id="stop920" />
      <stop
         offset=".173"
         stop-color="#cd5ca9"
         id="stop922" />
      <stop
         offset=".492"
         stop-color="#e8744f"
         id="stop924" />
      <stop
         offset=".716"
         stop-color="#f88316"
         id="stop926" />
      <stop
         offset=".823"
         stop-color="#ff8900"
         id="stop928" />
    </linearGradient>
    <linearGradient
       id="a"
       x1="45.154"
       y1="173.003"
       x2="109.326"
       y2="108.83"
       gradientUnits="userSpaceOnUse">
      <stop
         offset=".296"
         stop-color="#00afff"
         id="stop931" />
      <stop
         offset=".694"
         stop-color="#5282ff"
         id="stop933" />
      <stop
         offset="1"
         stop-color="#945dff"
         id="stop935" />
    </linearGradient>
    <linearGradient
       id="c"
       x1="-1.699"
       y1="45.044"
       x2="43.319"
       y2=".026"
       xlink:href="#a" />
    <linearGradient
       inkscape:collect="always"
       xlink:href="#a"
       id="linearGradient983"
       gradientUnits="userSpaceOnUse"
       x1="45.154"
       y1="173.003"
       x2="109.326"
       y2="108.83" />
  </defs>
  <sodipodi:namedview
     pagecolor="#ffffff"
     bordercolor="#666666"
     borderopacity="1"
     objecttolerance="10"
     gridtolerance="10"
     guidetolerance="10"
     inkscape:pageopacity="0"
     inkscape:pageshadow="2"
     inkscape:window-width="1920"
     inkscape:window-height="1009"
     id="namedview36"
     showgrid="false"
     inkscape:zoom="1.065483"
     inkscape:cx="469.42672"
     inkscape:cy="144.53845"
     inkscape:window-x="-8"
     inkscape:window-y="-8"
     inkscape:window-maximized="1"
     inkscape:current-layer="svg34"
     inkscape:document-rotation="0" />
  <g
     id="g75"
     transform="matrix(0.37674554,0,0,0.37674554,34.292001,44.910387)">
    <g
       id="#82029cff">
      <path
         fill="#82029c"
         opacity="1"
         d="M 0,0 H 512 V 512 H 0 V 0 m 320.47,52.43 c -9.03,2.86 -17.3,7.57 -26.15,10.89 -11.68,4.99 -23.32,10.04 -35.01,14.98 -8.48,4.2 -17.23,7.81 -26.14,10.98 -7.79,3.45 -15.54,6.99 -23.36,10.38 -11.5,4.19 -22.69,9.14 -33.81,14.21 -7.42,3.58 -15.3,6.06 -22.83,9.38 -13.45,5.36 -26.54,11.57 -40.04,16.83 -3.63,1.18 -7.2,2.57 -10.49,4.53 -7.14,3.37 -14.65,5.93 -21.77,9.33 5.46,2.96 10.98,5.81 16.45,8.77 5.2,3.14 10.09,6.77 15.47,9.6 8.68,5.52 16.73,11.96 25.23,17.74 2.94,1.97 5.54,4.39 8.13,6.79 8.01,6.62 16.31,12.98 23.47,20.55 5.18,4.81 10.9,9.19 15.03,15.01 2.2,3.1 5.14,5.53 7.89,8.12 3.87,3.53 6.41,8.18 9.81,12.13 17.79,21.33 33.21,44.7 45.26,69.75 19.39,39.02 31.12,81.54 36.97,124.62 0.45,2.14 -0.21,5.59 2.52,6.35 4.01,0.01 7.15,-3 10.67,-4.53 5.75,-2.32 10.52,-6.41 16.2,-8.88 7.12,-4.39 14.5,-8.31 21.93,-12.15 5.14,-3.45 11.26,-4.99 16.32,-8.56 7.29,-4.13 14.27,-8.81 21.99,-12.12 12.65,-6.95 25.37,-13.76 37.96,-20.82 4.76,-2.14 9.49,-4.35 13.9,-7.19 3.75,-2.43 9.2,-3.64 10.61,-8.45 1.79,-5.7 1.76,-11.75 2.14,-17.65 1.17,-12.97 1,-26.02 0.87,-39.03 0.16,-11.52 -0.95,-23 -2.08,-34.45 -2.11,-21.46 -5.76,-42.78 -11.35,-63.62 -2.5,-12.15 -7.14,-23.68 -10.69,-35.53 -5.44,-15.09 -11.68,-29.89 -18.59,-44.35 -8.28,-17.74 -19.04,-34.16 -29.12,-50.89 -4.05,-5.14 -7.32,-10.78 -10.6,-16.41 -6.27,-7.7 -10.77,-17.85 -20.37,-22 -5.98,-0.21 -10.85,4.11 -16.42,5.69 m -199.8,171.24 c -7.03,6.97 -14.03,13.97 -20.95,21.05 -4.48,4.2 -9.26,8.11 -12.88,13.13 -5.28,4.74 -9.57,10.42 -14.85,15.17 -4.92,5.58 -11.01,10 -15.77,15.72 13.04,5.11 26.61,8.81 39.38,14.58 5.96,1.62 11.13,5.1 16.93,7.13 18.74,7.57 36.76,16.77 54.28,26.81 7.06,4.69 14.53,8.72 21.61,13.38 8.43,6.21 16.98,12.26 25.1,18.88 5.67,5.34 11.46,10.57 17.62,15.34 6.66,6.34 13.04,12.99 18.94,20.05 7.58,9.78 14.64,19.96 21.29,30.38 0.29,0.06 0.85,0.19 1.14,0.25 1.43,-6.26 -2.63,-11.54 -4.81,-17.03 -2.25,-6.71 -6.88,-12.22 -9.45,-18.78 -4.89,-8.28 -10.39,-16.2 -15.78,-24.17 -6.79,-8.83 -14.03,-17.29 -21.43,-25.62 -7.58,-7.78 -15.91,-14.76 -24,-21.99 -4.01,-3.37 -8.71,-5.8 -12.65,-9.27 -5.75,-4.87 -12.78,-7.79 -18.81,-12.25 -3.11,-2.19 -6.74,-3.39 -10.1,-5.1 -9.18,-4.9 -18.35,-9.94 -28.11,-13.61 -8.26,-3.66 -17.22,-5.67 -25.13,-10.14 0.12,-1.2 -0.21,-2.66 0.76,-3.59 3.78,-4.59 8.58,-8.11 13.07,-11.92 7.07,-7.6 14.34,-15.04 22.34,-21.67 4.66,-5.33 11.01,-9.32 14.33,-15.73 0.79,-5.02 -4.61,-7.85 -8.05,-10.35 -3.29,-1.71 -6.38,-6 -10.48,-4.31 -5.1,3.92 -9.03,9.11 -13.54,13.66 m -1.81,107.23 c -4.86,5.23 -7.02,12.26 -10.64,18.3 -3.89,6.52 -6.91,13.53 -11.16,19.83 -4.96,7.67 -8.19,16.43 -13.88,23.64 14.24,1.19 28.54,1.63 42.72,3.44 14.8,1.78 29.64,3.43 44.22,6.56 13.82,2.32 27.18,6.64 40.48,10.9 4.16,1.77 8.14,3.92 12.37,5.52 6.81,3.76 14.42,5.78 20.93,10.13 6.95,3.2 12.4,8.73 18.91,12.59 -0.18,-1.53 0.09,-3.33 -1.22,-4.43 -7.93,-8.61 -17.42,-15.63 -27.45,-21.58 -9.46,-6.94 -20.54,-11.1 -31.28,-15.61 -5.3,-1.74 -10.28,-4.45 -15.82,-5.42 -3.63,-0.79 -6.97,-2.55 -10.62,-3.3 -10.35,-2.43 -20.62,-5.28 -31.16,-6.83 -10.82,-2.05 -21.84,-2.73 -32.72,-4.35 -3.35,-1.11 -2.36,-5.33 -0.67,-7.48 5.25,-7.27 9.65,-15.1 14.29,-22.77 2.68,-4.09 5.99,-8.01 6.98,-12.94 -1.33,-2.13 -4.24,-2.55 -6.16,-4.08 -2.28,-1.66 -5.3,-4.02 -8.12,-2.12 z"
         id="path42" />
      <path
         fill="#82029c"
         opacity="1"
         d="m 273.63,94.75 c 5.28,-3.06 10.13,6.19 5.3,9.16 -21.53,9.22 -43.27,18.02 -64.76,27.34 -2.5,0.85 -5.74,2.98 -8.04,0.6 -2.24,-1.85 -2.06,-4.95 -1.9,-7.56 3.47,-2.27 7.59,-3.15 11.34,-4.82 19.29,-8.39 38.89,-16.04 58.06,-24.72 z"
         id="path44" />
      <path
         fill="#82029c"
         opacity="1"
         d="m 319.55,110.49 c 7.68,-3.12 15.01,-7.81 23.42,-8.56 5.42,1.46 8.31,6.84 10.58,11.55 8.27,13.11 14.58,27.3 21.7,41.03 1.82,3.99 3.17,8.19 5.23,12.09 2.5,4.8 3.74,10.11 5.91,15.05 4.21,9.88 6.66,20.38 10.4,30.43 2.76,10.97 5.48,21.96 8,33 2.68,16.24 6.07,32.46 6.54,48.98 0.03,4.34 1.55,8.54 1.32,12.9 -0.26,6.19 0.41,12.42 -0.24,18.58 -1.77,3.92 -6.12,5.41 -9.6,7.4 -11.79,7.51 -24.75,12.93 -36.79,20.01 -4.09,2.39 -8.64,3.88 -12.65,6.41 -6.01,3.79 -12.59,6.57 -18.57,10.4 -6.26,3.95 -13.16,6.71 -19.51,10.48 -3.36,1.85 -6.65,4 -10.38,5.04 -1.93,0.55 -4.41,-0.3 -4.69,-2.51 -5.44,-18.5 -11.72,-36.78 -19.47,-54.45 -17.32,-39.25 -40.55,-75.92 -69.24,-107.84 -5.56,-7.37 -12.85,-13.13 -19.09,-19.88 -3.6,-3.4 -6.97,-7.03 -10.61,-10.37 -5.96,-4.13 -11.31,-9.1 -16.31,-14.33 6.11,-3.9 13.14,-6.07 19.82,-8.77 24.92,-10.84 50.03,-21.23 75.1,-31.71 9.32,-4.68 19.39,-7.6 28.72,-12.25 5.73,-3.1 12.23,-4.25 18.04,-7.16 4.06,-1.99 8.17,-3.86 12.37,-5.52 z"
         id="path46" />
      <path
         fill="#82029c"
         opacity="1"
         d="m 364.36,361.41 c 5.89,-1.77 12.54,-0.89 17.63,2.62 8.62,5.95 10.47,19.53 3.62,27.47 -8.3,9.26 -25.99,8.02 -31.64,-3.48 -5.26,-9.68 -0.35,-23.36 10.39,-26.61 z"
         id="path48" />
    </g>
    <g
       id="#fdfefdff">
      <path
         fill="#fdfefd"
         opacity="1"
         d="m 320.47,52.43 c 5.57,-1.58 10.44,-5.9 16.42,-5.69 9.6,4.15 14.1,14.3 20.37,22 3.28,5.63 6.55,11.27 10.6,16.41 10.08,16.73 20.84,33.15 29.12,50.89 6.91,14.46 13.15,29.26 18.59,44.35 3.55,11.85 8.19,23.38 10.69,35.53 5.59,20.84 9.24,42.16 11.35,63.62 1.13,11.45 2.24,22.93 2.08,34.45 0.13,13.01 0.3,26.06 -0.87,39.03 -0.38,5.9 -0.35,11.95 -2.14,17.65 -1.41,4.81 -6.86,6.02 -10.61,8.45 -4.41,2.84 -9.14,5.05 -13.9,7.19 -12.59,7.06 -25.31,13.87 -37.96,20.82 -7.72,3.31 -14.7,7.99 -21.99,12.12 -5.06,3.57 -11.18,5.11 -16.32,8.56 -7.43,3.84 -14.81,7.76 -21.93,12.15 -5.68,2.47 -10.45,6.56 -16.2,8.88 -3.52,1.53 -6.66,4.54 -10.67,4.53 -2.73,-0.76 -2.07,-4.21 -2.52,-6.35 -5.85,-43.08 -17.58,-85.6 -36.97,-124.62 -12.05,-25.05 -27.47,-48.42 -45.26,-69.75 -3.4,-3.95 -5.94,-8.6 -9.81,-12.13 -2.75,-2.59 -5.69,-5.02 -7.89,-8.12 -4.13,-5.82 -9.85,-10.2 -15.03,-15.01 -7.16,-7.57 -15.46,-13.93 -23.47,-20.55 -2.59,-2.4 -5.19,-4.82 -8.13,-6.79 -8.5,-5.78 -16.55,-12.22 -25.23,-17.74 -5.38,-2.83 -10.27,-6.46 -15.47,-9.6 -5.47,-2.96 -10.99,-5.81 -16.45,-8.77 7.12,-3.4 14.63,-5.96 21.77,-9.33 3.29,-1.96 6.86,-3.35 10.49,-4.53 13.5,-5.26 26.59,-11.47 40.04,-16.83 7.53,-3.32 15.41,-5.8 22.83,-9.38 11.12,-5.07 22.31,-10.02 33.81,-14.21 7.82,-3.39 15.57,-6.93 23.36,-10.38 8.91,-3.17 17.66,-6.78 26.14,-10.98 11.69,-4.94 23.33,-9.99 35.01,-14.98 8.85,-3.32 17.12,-8.03 26.15,-10.89 m -46.84,42.32 c -19.17,8.68 -38.77,16.33 -58.06,24.72 -3.75,1.67 -7.87,2.55 -11.34,4.82 -0.16,2.61 -0.34,5.71 1.9,7.56 2.3,2.38 5.54,0.25 8.04,-0.6 21.49,-9.32 43.23,-18.12 64.76,-27.34 4.83,-2.97 -0.02,-12.22 -5.3,-9.16 m 45.92,15.74 c -4.2,1.66 -8.31,3.53 -12.37,5.52 -5.81,2.91 -12.31,4.06 -18.04,7.16 -9.33,4.65 -19.4,7.57 -28.72,12.25 -25.07,10.48 -50.18,20.87 -75.1,31.71 -6.68,2.7 -13.71,4.87 -19.82,8.77 5,5.23 10.35,10.2 16.31,14.33 3.64,3.34 7.01,6.97 10.61,10.37 6.24,6.75 13.53,12.51 19.09,19.88 28.69,31.92 51.92,68.59 69.24,107.84 7.75,17.67 14.03,35.95 19.47,54.45 0.28,2.21 2.76,3.06 4.69,2.51 3.73,-1.04 7.02,-3.19 10.38,-5.04 6.35,-3.77 13.25,-6.53 19.51,-10.48 5.98,-3.83 12.56,-6.61 18.57,-10.4 4.01,-2.53 8.56,-4.02 12.65,-6.41 12.04,-7.08 25,-12.5 36.79,-20.01 3.48,-1.99 7.83,-3.48 9.6,-7.4 0.65,-6.16 -0.02,-12.39 0.24,-18.58 0.23,-4.36 -1.29,-8.56 -1.32,-12.9 -0.47,-16.52 -3.86,-32.74 -6.54,-48.98 -2.52,-11.04 -5.24,-22.03 -8,-33 -3.74,-10.05 -6.19,-20.55 -10.4,-30.43 -2.17,-4.94 -3.41,-10.25 -5.91,-15.05 -2.06,-3.9 -3.41,-8.1 -5.23,-12.09 -7.12,-13.73 -13.43,-27.92 -21.7,-41.03 -2.27,-4.71 -5.16,-10.09 -10.58,-11.55 -8.41,0.75 -15.74,5.44 -23.42,8.56 m 44.81,250.92 c -10.74,3.25 -15.65,16.93 -10.39,26.61 5.65,11.5 23.34,12.74 31.64,3.48 6.85,-7.94 5,-21.52 -3.62,-27.47 -5.09,-3.51 -11.74,-4.39 -17.63,-2.62 z"
         id="path51" />
      <path
         fill="#fdfefd"
         opacity="1"
         d="m 120.67,223.67 c 4.51,-4.55 8.44,-9.74 13.54,-13.66 4.1,-1.69 7.19,2.6 10.48,4.31 3.44,2.5 8.84,5.33 8.05,10.35 -3.32,6.41 -9.67,10.4 -14.33,15.73 -8,6.63 -15.27,14.07 -22.34,21.67 -4.49,3.81 -9.29,7.33 -13.07,11.92 -0.97,0.93 -0.64,2.39 -0.76,3.59 7.91,4.47 16.87,6.48 25.13,10.14 9.76,3.67 18.93,8.71 28.11,13.61 3.36,1.71 6.99,2.91 10.1,5.1 6.03,4.46 13.06,7.38 18.81,12.25 3.94,3.47 8.64,5.9 12.65,9.27 8.09,7.23 16.42,14.21 24,21.99 7.4,8.33 14.64,16.79 21.43,25.62 5.39,7.97 10.89,15.89 15.78,24.17 2.57,6.56 7.2,12.07 9.45,18.78 2.18,5.49 6.24,10.77 4.81,17.03 -0.29,-0.06 -0.85,-0.19 -1.14,-0.25 -6.65,-10.42 -13.71,-20.6 -21.29,-30.38 -5.9,-7.06 -12.28,-13.71 -18.94,-20.05 -6.16,-4.77 -11.95,-10 -17.62,-15.34 -8.12,-6.62 -16.67,-12.67 -25.1,-18.88 -7.08,-4.66 -14.55,-8.69 -21.61,-13.38 -17.52,-10.04 -35.54,-19.24 -54.28,-26.81 -5.8,-2.03 -10.97,-5.51 -16.93,-7.13 -12.77,-5.77 -26.34,-9.47 -39.38,-14.58 4.76,-5.72 10.85,-10.14 15.77,-15.72 5.28,-4.75 9.57,-10.43 14.85,-15.17 3.62,-5.02 8.4,-8.93 12.88,-13.13 6.92,-7.08 13.92,-14.08 20.95,-21.05 z"
         id="path53" />
      <path
         fill="#fdfefd"
         opacity="1"
         d="m 118.86,330.9 c 2.82,-1.9 5.84,0.46 8.12,2.12 1.92,1.53 4.83,1.95 6.16,4.08 -0.99,4.93 -4.3,8.85 -6.98,12.94 -4.64,7.67 -9.04,15.5 -14.29,22.77 -1.69,2.15 -2.68,6.37 0.67,7.48 10.88,1.62 21.9,2.3 32.72,4.35 10.54,1.55 20.81,4.4 31.16,6.83 3.65,0.75 6.99,2.51 10.62,3.3 5.54,0.97 10.52,3.68 15.82,5.42 10.74,4.51 21.82,8.67 31.28,15.61 10.03,5.95 19.52,12.97 27.45,21.58 1.31,1.1 1.04,2.9 1.22,4.43 -6.51,-3.86 -11.96,-9.39 -18.91,-12.59 -6.51,-4.35 -14.12,-6.37 -20.93,-10.13 -4.23,-1.6 -8.21,-3.75 -12.37,-5.52 -13.3,-4.26 -26.66,-8.58 -40.48,-10.9 -14.58,-3.13 -29.42,-4.78 -44.22,-6.56 -14.18,-1.81 -28.48,-2.25 -42.72,-3.44 5.69,-7.21 8.92,-15.97 13.88,-23.64 4.25,-6.3 7.27,-13.31 11.16,-19.83 3.62,-6.04 5.78,-13.07 10.64,-18.3 z"
         id="path55" />
    </g>
  </g>
  <text
     xml:space="preserve"
     style="font-style:normal;font-weight:normal;font-size:99.5776px;line-height:1.25;font-family:sans-serif;fill:#08589c;fill-opacity:1;stroke:none;stroke-width:0.518633;opacity:1;"
     x="266.48785"
     y="178.17921"
     id="text79"><tspan
       sodipodi:role="line"
       id="tspan77"
       x="266.48785"
       y="178.17921"
       style="font-style:normal;font-variant:normal;font-weight:normal;font-stretch:normal;font-size:99.5776px;font-family:'CaskaydiaCove NF';-inkscape-font-specification:'CaskaydiaCove NF';fill:#08589c;fill-opacity:1;stroke-width:0.518633;">+</tspan></text>
  <g
     id="g981"
     transform="matrix(0.77853466,0,0,0.77853466,357.64298,82.756383)">
    <g
       fill="#000400"
       data-name="&lt;Group&gt;"
       id="g949">
      <path
         data-name="&lt;Compound Path&gt;"
         d="m 187.058,6.065 h 31.132 v 61.86 l 57.412,-61.86 h 37.601 l -57.614,60.04 60.242,81.47 h -37.399 l -43.867,-60.242 -16.375,16.98 v 43.261 h -31.132 z"
         id="path943"
         style="fill:#945dff;fill-opacity:1" />
      <path
         data-name="&lt;Compound Path&gt;"
         d="M 299.286,94.002 V 93.6 c 0,-31.133 25.068,-56.403 58.828,-56.403 33.558,0 58.424,24.866 58.424,55.998 V 93.6 c 0,31.132 -25.068,56.4 -58.828,56.4 -33.558,0 -58.424,-24.865 -58.424,-55.998 z m 86.928,0 V 93.6 c 0,-15.972 -11.523,-29.92 -28.504,-29.92 -17.588,0 -28.1,13.543 -28.1,29.515 V 93.6 c 0,15.97 11.523,29.918 28.504,29.918 17.588,0 28.1,-13.544 28.1,-29.516 z"
         id="path945"
         style="fill:#945dff;fill-opacity:1" />
      <path
         data-name="&lt;Compound Path&gt;"
         d="M 425.02,116.847 V 65.499 H 412.082 V 39.22 H 425.02 V 11.523 h 30.728 v 27.696 h 25.472 v 26.28 h -25.472 v 46.295 c 0,7.074 3.032,10.512 9.906,10.512 a 31.232,31.232 0 0 0 15.161,-3.843 v 24.664 c -6.469,3.841 -13.948,6.267 -24.258,6.267 -18.8,0 -31.537,-7.48 -31.537,-32.547 z M 490.04,0 h 30.728 V 147.574 H 490.04 Z m 41.835,0 h 32.344 v 27.291 h -32.344 z m 0.81,39.219 h 30.727 v 108.355 h -30.728 z m 42.416,0 h 30.728 v 15.363 c 7.076,-9.097 16.173,-17.385 31.738,-17.385 23.249,0 36.793,15.364 36.793,40.23 v 70.147 H 643.632 V 87.13 c 0,-14.555 -6.874,-22.035 -18.599,-22.035 -11.726,0 -19.204,7.48 -19.204,22.035 v 60.444 H 575.1 Z"
         id="path947"
         style="fill:#945dff;fill-opacity:1" />
    </g>
    <path
       fill="url(#b)"
       d="M 71.035,5.994 0,80.696 v 66.781 L 70.932,76.42 141.483,5.994 Z"
       id="path951"
       style="fill:url(#b)" />
    <path
       data-name="&lt;Path&gt;"
       fill="url(#a)"
       d="M 0,147.477 70.932,76.42 141.483,147.477 Z"
       id="path953"
       style="fill:url(#linearGradient983)" />
    <path
       fill="url(#c)"
       d="M 0,5.994 H 71.035 L 0,80.696 Z"
       id="path955"
       style="fill:url(#c)" />
  </g>
</svg>
